<svg width="20" height="20" viewBox="0 0 20 20" fill="white" xmlns="http://www.w3.org/2000/svg">
<path d="M9.99992 3.94727C5.83325 3.94727 2.24992 6.40143 0.833252 9.88477C2.24992 13.3681 5.83325 15.8223 9.99992 15.8223H10.9166C10.8333 15.5848 10.8333 15.3473 10.8333 15.0306C10.8333 14.7139 10.8333 14.4764 10.9166 14.1598C10.5833 14.1598 10.3333 14.2389 9.99992 14.2389C6.83325 14.2389 3.99992 12.5764 2.66659 9.88477C3.99992 7.1931 6.83325 5.5306 9.99992 5.5306C13.1666 5.5306 15.9999 7.1931 17.3333 9.88477C17.2499 10.0431 17.0833 10.2014 16.9999 10.4389C17.5833 10.5973 18.0833 10.7556 18.5833 11.0723C18.8333 10.6764 18.9999 10.2806 19.1666 9.88477C17.7499 6.40143 14.1666 3.94727 9.99992 3.94727ZM9.99992 7.50977C8.58325 7.50977 7.49992 8.53893 7.49992 9.88477C7.49992 11.2306 8.58325 12.2598 9.99992 12.2598C11.4166 12.2598 12.4999 11.2306 12.4999 9.88477C12.4999 8.53893 11.4166 7.50977 9.99992 7.50977ZM15.8333 17.0098V15.4264H12.4999V13.8431H15.8333V12.2598L18.3333 14.6348L15.8333 17.0098Z" />
</svg>
