<svg width="25" height="22" viewBox="0 0 25 22" fill="none" xmlns="http://www.w3.org/2000/svg">
<path d="M24.9879 7.402C24.8586 14.3653 14.8832 20.6931 12.9174 21.8835C12.7929 21.9623 12.6493 22.0027 12.5036 21.9999C12.3554 21.9994 12.2099 21.9593 12.0811 21.8835C10.0894 20.6931 0.105402 14.3653 0.0105618 7.402C-0.0664779 5.96921 0.279345 4.5461 1.00186 3.32269C1.72438 2.09927 2.78921 1.13376 4.05419 0.555064C4.89329 0.182846 5.79722 -0.00604742 6.7097 0.000147588C8.82315 0.0702861 10.8447 0.913525 12.4173 2.38091L12.5294 2.48832L12.6415 2.38091C14.2141 0.913525 16.2357 0.0702861 18.3491 0.000147588C19.2616 -0.00604742 20.1656 0.182846 21.0047 0.555064C22.2584 1.14341 23.3105 2.11304 24.0217 3.33566C24.733 4.55828 25.0699 5.97626 24.9879 7.402Z" fill="#E03524"/>
</svg>
